<?xml version="1.0" standalone="no"?>
<!DOCTYPE svg PUBLIC "-//W3C//DTD SVG 20010904//EN"
 "http://www.w3.org/TR/2001/REC-SVG-20010904/DTD/svg10.dtd">
<svg version="1.0" xmlns="http://www.w3.org/2000/svg"
 width="1200.000000pt" height="1200.000000pt" viewBox="0 0 1200.000000 1200.000000"
 preserveAspectRatio="xMidYMid meet">
<metadata>
Created by potrace 1.14, written by Peter Selinger 2001-2017
</metadata>
<g transform="translate(0.000000,1200.000000) scale(0.100000,-0.100000)"
fill="#000000" stroke="none">
<path d="M5768 11245 c-1 -1 -55 -6 -118 -9 -119 -7 -157 -11 -275 -26 -38 -5
-83 -11 -100 -12 -22 -2 -35 -12 -50 -38 -11 -19 -43 -51 -70 -70 -127 -91
-200 -179 -250 -305 -72 -180 5 -421 178 -553 69 -53 119 -74 257 -111 309
-82 566 -185 730 -292 133 -88 263 -242 284 -340 33 -147 26 -237 -29 -356
-46 -100 -123 -198 -285 -366 -76 -78 -147 -154 -158 -167 -163 -211 -260
-458 -260 -661 0 -263 113 -546 338 -843 108 -143 131 -166 170 -172 19 -3 61
-12 92 -19 l58 -13 -5 24 c-3 13 -7 35 -10 48 -18 90 -24 250 -12 362 15 142
84 347 159 471 43 72 146 183 226 244 90 68 237 140 374 183 64 20 125 39 135
41 10 2 63 12 118 24 98 20 319 57 399 67 40 4 192 30 231 38 11 3 54 12 95
21 41 8 89 20 105 25 17 5 49 14 71 20 l42 10 -1 103 c0 80 6 126 28 212 30
120 40 249 24 331 -20 109 -119 266 -218 346 -25 21 -75 59 -111 85 -135 97
-294 280 -380 436 -122 224 -167 601 -105 892 21 99 24 111 34 137 8 22 5 24
-133 60 -77 21 -152 40 -166 43 -36 7 -55 11 -145 30 -44 9 -89 18 -100 20
-49 9 -234 37 -270 41 -22 3 -53 7 -70 9 -16 2 -66 7 -110 10 -44 4 -91 9
-105 12 -28 5 -606 13 -612 8z"/>
<path d="M4485 11025 c-423 -130 -827 -309 -1189 -528 l-58 -35 58 -7 c33 -3
77 -8 99 -11 22 -2 65 -7 95 -10 30 -2 69 -6 85 -8 17 -3 62 -8 100 -11 39 -4
77 -9 87 -10 19 -4 83 -12 153 -20 56 -7 105 -13 150 -20 17 -2 53 -7 80 -10
28 -3 73 -10 100 -15 28 -4 82 -13 120 -19 39 -6 97 -16 129 -21 90 -15 87
-17 61 53 -45 120 -50 150 -50 282 0 152 17 232 74 349 20 42 32 76 26 76 -5
-1 -59 -16 -120 -35z"/>
<path d="M7829 10868 c-31 -114 -46 -360 -26 -443 3 -11 8 -40 12 -65 33 -201
161 -381 395 -556 193 -145 329 -325 395 -527 16 -50 20 -70 33 -172 14 -110
3 -246 -29 -363 -6 -23 -9 -45 -5 -49 3 -4 29 18 57 48 145 153 233 372 265
660 7 63 7 355 0 414 -20 172 -42 317 -69 451 l-32 156 -124 75 c-170 103
-334 190 -538 285 -82 37 -304 128 -314 128 -5 0 -13 -19 -20 -42z"/>
<path d="M2660 10045 c-163 -134 -293 -256 -498 -467 l-64 -66 89 -16 c292
-53 585 -36 872 50 105 32 176 61 306 126 101 50 125 65 224 141 62 47 226
207 214 208 -5 0 -15 2 -23 3 -8 2 -46 7 -85 10 -121 13 -201 22 -355 41 -19
3 -64 7 -100 10 -87 6 -177 15 -220 20 -19 3 -64 7 -100 10 -36 3 -85 7 -110
10 -45 6 -47 5 -150 -80z"/>
<path d="M9274 10031 c4 -41 9 -78 11 -82 8 -12 18 -245 17 -379 -1 -125 -6
-209 -17 -285 -2 -16 -6 -43 -9 -60 -6 -46 -45 -204 -63 -260 -41 -128 -136
-306 -222 -416 l-20 -26 97 22 c212 48 409 130 582 243 47 31 87 58 90 61 3 3
28 24 55 46 100 79 257 245 308 325 l18 28 -83 98 c-157 188 -294 333 -502
529 -18 17 -75 66 -127 109 -51 44 -105 89 -118 100 l-23 21 6 -74z"/>
<path d="M4175 9879 c-72 -97 -232 -262 -335 -345 -261 -212 -619 -368 -960
-418 -142 -20 -456 -27 -580 -12 -30 4 -73 9 -95 11 -22 3 -50 7 -61 9 -12 2
-39 7 -60 10 -22 4 -86 18 -143 31 -58 14 -108 22 -111 18 -28 -31 -201 -280
-264 -379 l-77 -122 21 -58 c12 -33 25 -68 30 -79 4 -11 14 -36 21 -55 7 -19
43 -107 80 -195 136 -319 281 -561 461 -770 212 -245 439 -386 698 -433 202
-37 281 -41 515 -27 77 5 187 9 245 9 489 3 941 -149 1335 -447 75 -57 102
-80 213 -184 l46 -42 39 67 c98 166 242 298 409 377 l58 27 -39 47 c-147 176
-303 505 -336 711 -5 35 -11 62 -21 110 -3 14 -7 93 -11 175 -4 119 -2 167 11
230 40 190 131 405 242 572 68 102 103 144 253 298 169 175 241 271 241 323 0
77 -104 169 -286 254 -146 68 -323 130 -429 150 -27 5 -85 20 -128 34 -65 22
-159 44 -282 68 -11 3 -60 13 -110 24 -74 17 -217 42 -320 57 -11 2 -60 10
-110 19 -49 9 -92 16 -95 16 -3 -1 -32 -37 -65 -81z"/>
<path d="M10324 8893 c-45 -60 -232 -244 -309 -304 -254 -201 -571 -350 -876
-413 -162 -33 -239 -41 -384 -40 -84 1 -141 8 -190 21 l-70 20 -110 -38 c-142
-48 -308 -94 -415 -114 -47 -9 -94 -18 -105 -20 -11 -3 -38 -7 -60 -10 -105
-13 -134 -17 -180 -26 -27 -5 -66 -11 -85 -13 -261 -32 -518 -111 -651 -199
-277 -184 -337 -547 -174 -1057 13 -41 27 -91 30 -110 4 -19 20 -54 36 -78 16
-24 29 -46 29 -50 0 -4 8 -19 18 -34 l18 -27 73 70 c75 71 204 178 250 207 14
9 28 19 31 22 8 9 106 69 185 112 164 91 365 168 555 212 179 41 270 50 480
50 91 0 210 -4 265 -9 297 -26 572 14 772 111 409 200 746 663 1009 1388 l44
119 -67 106 c-99 159 -86 148 -119 104z"/>
<path d="M1240 8214 c-6 -14 -10 -27 -10 -29 0 -2 -13 -32 -29 -67 -41 -87
-85 -193 -106 -253 -9 -27 -21 -59 -26 -70 -45 -105 -167 -518 -186 -629 -3
-16 -9 -39 -13 -52 -8 -20 -1 -31 49 -79 183 -176 393 -269 638 -282 152 -9
287 18 433 84 74 33 194 114 183 123 -4 4 -37 29 -73 55 -82 61 -280 259 -345
345 -27 36 -52 67 -55 70 -13 10 -148 217 -195 300 -62 108 -162 309 -210 423
-21 48 -39 87 -41 87 -3 0 -9 -12 -14 -26z"/>
<path d="M10700 8143 c-133 -305 -274 -550 -439 -763 -81 -105 -283 -308 -374
-376 l-67 -51 57 -40 c276 -193 630 -214 948 -59 99 49 161 93 252 177 l60 55
-14 53 c-7 29 -15 65 -18 79 -7 44 -73 280 -106 382 -63 195 -210 569 -245
623 -9 15 -17 3 -54 -80z"/>
<path d="M2481 6719 c-30 -28 -86 -73 -125 -101 -451 -316 -1018 -326 -1481
-24 -83 54 -85 55 -86 31 -1 -14 -2 -28 -3 -32 -2 -5 -6 -48 -10 -98 -5 -49
-10 -106 -12 -125 -7 -56 -14 -508 -8 -523 4 -11 35 -14 142 -15 256 -2 464
-44 700 -144 185 -78 299 -155 448 -303 134 -133 215 -253 312 -457 81 -170
108 -210 217 -325 116 -122 242 -196 419 -247 75 -22 102 -27 211 -42 90 -13
323 -7 427 11 15 3 43 7 61 10 199 34 483 133 677 237 374 202 636 463 842
839 l25 45 -23 40 c-70 115 -119 253 -138 383 -8 53 -59 122 -189 253 -210
213 -480 389 -717 468 -136 45 -143 46 -270 72 -105 20 -138 22 -375 20 -499
-6 -540 -6 -609 1 -38 4 -78 10 -90 12 -11 3 -34 7 -51 9 -25 3 -177 37 -225
51 -8 2 -39 -18 -69 -46z"/>
<path d="M9365 6744 c-158 -42 -343 -61 -553 -58 -103 2 -198 6 -212 9 -44 9
-261 6 -360 -5 -234 -27 -438 -87 -620 -182 -63 -33 -122 -66 -131 -74 -8 -8
-19 -14 -23 -14 -4 0 -14 -6 -21 -12 -8 -7 -37 -29 -66 -48 -123 -84 -290
-240 -393 -367 -49 -62 -56 -76 -66 -138 -20 -129 -63 -246 -127 -349 l-31
-49 31 -56 c212 -389 506 -668 912 -866 152 -74 386 -158 499 -179 11 -2 57
-11 102 -20 414 -79 818 -1 1052 202 42 36 85 77 95 89 10 13 24 29 30 36 40
41 98 139 162 271 40 83 102 194 136 246 76 114 251 292 361 368 189 129 432
221 708 267 76 13 130 17 257 17 106 1 133 4 138 15 6 17 -1 495 -9 533 -2 14
-8 63 -12 110 -3 47 -8 94 -9 105 -2 11 -4 28 -4 37 -1 14 -19 6 -86 -38 -88
-58 -242 -134 -268 -134 -9 0 -18 -4 -21 -9 -3 -5 -16 -11 -28 -14 -13 -2 -50
-12 -83 -21 -33 -9 -76 -19 -95 -22 -19 -2 -46 -7 -60 -10 -90 -21 -328 -8
-474 25 -187 44 -423 170 -571 305 -33 31 -62 55 -65 55 -3 -1 -45 -12 -95
-25z"/>
<path d="M5942 6558 c-133 -15 -240 -67 -337 -163 -353 -352 -103 -957 395
-956 308 1 563 256 561 559 -2 336 -291 597 -619 560z"/>
<path d="M803 5452 c-19 -3 -21 -8 -17 -38 5 -41 10 -82 19 -153 4 -30 8 -61
10 -70 1 -9 6 -36 10 -61 4 -25 9 -54 11 -65 2 -11 11 -58 20 -105 8 -47 19
-98 24 -115 5 -16 11 -41 14 -55 5 -33 47 -192 80 -306 23 -78 48 -153 133
-392 l16 -44 51 50 c28 27 62 59 76 70 14 12 39 33 55 47 59 51 212 139 330
191 130 56 278 96 422 115 102 13 101 10 52 80 -10 14 -50 90 -90 170 -85 170
-128 236 -216 330 -163 173 -371 278 -659 334 -81 15 -287 26 -341 17z"/>
<path d="M11017 5454 c-1 -1 -29 -4 -62 -7 -76 -8 -105 -12 -185 -31 -300 -70
-533 -225 -681 -451 -47 -72 -57 -90 -129 -233 -22 -45 -56 -108 -75 -140 -18
-31 -33 -58 -32 -58 1 -1 27 -5 58 -8 31 -4 65 -8 75 -10 11 -2 39 -7 64 -11
85 -14 270 -75 367 -122 161 -77 265 -148 393 -270 l64 -62 23 56 c49 119 135
391 178 556 50 197 45 172 84 382 29 156 35 198 46 300 3 28 8 62 11 78 3 15
2 28 -3 28 -14 2 -194 5 -196 3z"/>
<path d="M5387 4981 c-186 -280 -509 -564 -832 -732 -44 -23 -84 -45 -90 -49
-19 -15 -211 -92 -325 -131 -151 -52 -336 -95 -490 -115 -25 -3 -56 -7 -70
-10 -14 -2 -99 -6 -190 -9 -274 -7 -481 36 -729 150 -70 32 -138 56 -171 60
-30 4 -64 9 -75 11 -26 6 -254 6 -263 0 -4 -2 -29 -6 -57 -10 -27 -3 -65 -10
-82 -15 -18 -5 -33 -8 -33 -6 0 3 -46 -12 -102 -31 -123 -43 -242 -102 -317
-157 -71 -51 -199 -179 -235 -234 l-27 -41 47 -89 c99 -187 188 -336 292 -491
l55 -82 1871 2 1871 3 1 183 c0 100 -2 182 -5 183 -3 1 -56 2 -117 4 -94 2
-118 6 -152 25 -110 62 -131 212 -40 297 44 41 90 53 206 53 l109 0 0 173 c1
94 0 179 -3 187 -3 12 -26 15 -119 17 -103 1 -120 4 -158 26 -104 61 -122 213
-35 294 44 41 90 53 206 53 l109 0 0 275 c0 151 -1 275 -2 275 -1 0 -23 -31
-48 -69z"/>
<path d="M6563 4777 l0 -277 109 0 c160 0 224 -34 253 -135 25 -86 -10 -171
-86 -214 -37 -21 -56 -24 -156 -25 -92 -1 -114 -4 -117 -16 -3 -8 -4 -93 -4
-187 l0 -173 102 0 c55 0 118 -5 139 -11 94 -26 150 -125 125 -223 -13 -52
-41 -89 -90 -116 -36 -20 -56 -23 -157 -24 l-116 -2 0 -184 0 -185 1871 -3
1872 -2 79 122 c132 204 201 322 282 480 l34 67 -38 48 c-61 76 -177 187 -243
232 -156 105 -379 186 -572 206 -64 7 -234 7 -270 1 -14 -3 -47 -7 -75 -11
-28 -3 -98 -28 -159 -56 -165 -77 -331 -126 -494 -147 -104 -13 -484 -4 -510
12 -4 2 -32 7 -62 11 -54 6 -207 38 -265 56 -221 65 -404 137 -560 222 -304
164 -555 369 -748 612 -27 33 -54 68 -62 77 -7 9 -19 27 -26 39 -6 13 -16 28
-21 33 -5 6 -15 20 -22 30 -11 17 -13 -24 -13 -257z"/>
<path d="M5815 4870 c-1 -3 -3 -87 -3 -187 l0 -183 188 0 188 0 -1 187 -2 188
-183 0 c-101 0 -185 -2 -187 -5z"/>
<path d="M5812 3938 l0 -188 188 0 188 0 0 188 1 188 -188 -1 -189 0 0 -187z"/>
<path d="M5815 3370 c-2 -3 -4 -87 -4 -188 l-1 -182 189 0 189 0 -1 187 -2
188 -183 0 c-101 0 -185 -2 -187 -5z"/>
<path d="M1590 2618 c-41 -4 -85 -10 -97 -13 -13 -3 -26 -6 -30 -7 -66 -11
-258 -100 -325 -151 -68 -52 -179 -167 -222 -231 -74 -109 -134 -255 -153
-374 -5 -26 -8 -255 -8 -509 l0 -461 31 -39 c17 -21 48 -48 70 -60 l39 -23
5115 3 5115 2 33 23 c17 13 44 40 60 59 l27 36 2 451 c1 270 -2 473 -8 506
-58 313 -239 559 -514 697 -59 30 -169 68 -229 79 -17 3 -44 8 -61 11 -46 8
-8760 9 -8845 1z m1866 -388 c44 -22 88 -76 100 -124 9 -38 9 -766 0 -828 -9
-63 -64 -124 -126 -142 -64 -18 -819 -15 -872 3 -53 18 -105 82 -114 140 -4
25 -7 219 -7 431 0 424 1 426 62 488 18 17 47 36 64 41 18 5 216 10 441 10
393 1 411 0 452 -19z m1487 6 c46 -19 84 -56 103 -102 14 -34 17 -91 17 -424
0 -212 -3 -406 -7 -432 -9 -63 -64 -124 -126 -142 -33 -9 -150 -12 -445 -11
-359 0 -404 2 -437 18 -53 25 -96 82 -104 136 -4 25 -7 219 -7 431 0 335 3
390 17 424 20 47 68 93 111 105 16 5 214 10 438 10 324 1 414 -2 440 -13z
m1159 4 c142 -25 291 -126 370 -250 177 -279 81 -643 -212 -799 -73 -39 -163
-62 -248 -63 -61 -1 -87 2 -162 17 -56 11 -174 79 -233 135 -239 224 -238 591
2 818 125 119 309 173 483 142z m3520 -752 c18 -6 49 -26 69 -45 91 -86 68
-236 -44 -295 l-42 -22 -980 0 -980 -1 -47 27 c-133 79 -126 265 13 328 43 19
68 20 1011 20 683 0 976 -4 1000 -12z m1136 -4 c46 -19 70 -40 92 -84 49 -96
13 -207 -80 -252 -42 -21 -58 -22 -275 -22 -251 0 -262 2 -317 61 -91 96 -52
253 73 302 13 5 125 10 248 10 177 0 231 -3 259 -15z"/>
<path d="M2814 1869 c-2 -3 -3 -87 -3 -187 l0 -182 190 0 189 0 0 185 c-1 102
-4 186 -8 186 -25 5 -365 3 -368 -2z"/>
<path d="M4321 1870 c-5 -3 -9 -87 -9 -187 l0 -183 188 0 188 0 -1 187 -2 188
-178 0 c-98 0 -182 -2 -186 -5z"/>
<path d="M5964 1870 c-43 -10 -98 -45 -118 -74 -106 -162 71 -361 242 -272 82
43 120 150 84 238 -16 39 -80 96 -116 103 -17 4 -38 8 -46 10 -8 1 -29 -1 -46
-5z"/>
</g>
</svg>
