<?xml version="1.0" standalone="no"?>
<!DOCTYPE svg PUBLIC "-//W3C//DTD SVG 20010904//EN"
 "http://www.w3.org/TR/2001/REC-SVG-20010904/DTD/svg10.dtd">
<svg version="1.0" xmlns="http://www.w3.org/2000/svg"
 width="600.000000pt" height="600.000000pt" viewBox="0 0 600.000000 600.000000"
 preserveAspectRatio="xMidYMid meet">
<metadata>
Created by potrace 1.14, written by Peter Selinger 2001-2017
</metadata>
<g transform="translate(0.000000,600.000000) scale(0.100000,-0.100000)"
fill="#000000" stroke="none">
<path d="M2887 5624 c-1 -1 -37 -5 -80 -8 -180 -14 -170 -10 -256 -95 -92 -90
-116 -140 -109 -225 8 -99 95 -202 191 -226 311 -78 500 -190 540 -322 38
-123 5 -199 -162 -373 -79 -83 -127 -153 -164 -243 -27 -67 -32 -89 -32 -167
0 -125 34 -224 126 -360 76 -114 108 -144 158 -151 42 -7 43 -6 36 17 -14 43
-12 182 3 248 27 119 78 211 157 283 60 54 227 125 335 143 19 3 46 7 60 10
14 3 41 7 60 10 92 14 260 46 304 58 l49 13 2 66 c2 37 8 82 14 100 43 136 -1
253 -136 359 -85 66 -109 90 -160 159 -86 118 -114 218 -109 390 2 63 6 124 9
135 21 78 22 73 -22 84 -87 23 -118 30 -191 45 -41 8 -97 18 -125 22 -27 3
-58 8 -67 9 -55 11 -422 26 -431 19z"/>
<path d="M2215 5504 c-105 -34 -231 -83 -330 -130 -92 -44 -257 -135 -253
-140 5 -5 55 -12 128 -19 36 -3 79 -8 95 -10 151 -20 335 -46 358 -50 15 -3
38 -7 51 -9 l25 -4 -15 41 c-35 96 -28 218 16 309 10 21 15 38 12 38 -4 -1
-43 -12 -87 -26z"/>
<path d="M3910 5406 c-40 -192 9 -346 147 -463 142 -121 171 -154 211 -236 22
-45 43 -99 47 -120 9 -57 7 -157 -4 -196 -20 -67 5 -50 70 49 31 47 63 137 75
212 20 122 7 329 -31 494 l-16 69 -117 67 c-115 65 -169 92 -304 148 l-67 28
-11 -52z"/>
<path d="M1320 5013 c-72 -61 -260 -244 -260 -254 0 -10 74 -20 170 -24 200
-8 413 56 560 170 73 57 118 105 99 106 -8 0 -21 2 -30 4 -14 3 -72 9 -179 21
-25 2 -63 6 -85 9 -22 2 -76 7 -120 11 -44 3 -82 8 -85 9 -3 1 -34 -22 -70
-52z"/>
<path d="M4639 5012 c3 -20 6 -118 5 -217 0 -151 -4 -192 -22 -257 -25 -93
-50 -148 -96 -217 -20 -29 -36 -54 -36 -56 0 -3 91 19 135 33 137 43 303 158
397 275 l38 49 -32 41 c-80 100 -292 312 -369 368 l-27 19 7 -38z"/>
<path d="M2091 4945 c-57 -84 -212 -220 -311 -273 -103 -56 -251 -103 -370
-118 -58 -7 -251 -7 -285 0 -11 2 -40 7 -65 11 -25 4 -66 13 -92 20 l-47 14
-49 -67 c-68 -92 -122 -180 -122 -196 0 -25 90 -239 137 -326 98 -181 196
-301 313 -380 33 -22 61 -40 63 -40 3 0 20 -6 38 -14 41 -17 35 -15 106 -32
41 -10 113 -13 245 -11 242 4 316 -4 468 -49 102 -31 159 -59 265 -129 74 -49
97 -67 166 -132 l26 -24 26 43 c35 60 102 125 165 160 28 17 52 33 52 36 0 4
-16 30 -36 57 -61 85 -124 227 -141 315 -26 141 -23 238 12 343 43 134 94 215
213 342 136 145 149 173 108 222 -44 52 -244 142 -356 159 -19 4 -42 10 -50
14 -21 11 -285 64 -420 85 -31 4 -37 1 -59 -30z"/>
<path d="M5109 4392 c-83 -86 -163 -148 -259 -200 -85 -46 -221 -96 -295 -107
-27 -5 -57 -10 -65 -12 -46 -10 -209 -1 -231 12 -4 3 -53 -10 -110 -29 -57
-19 -123 -36 -147 -40 -24 -3 -46 -7 -50 -10 -4 -2 -34 -7 -67 -11 -32 -3 -62
-8 -65 -10 -3 -1 -27 -5 -55 -9 -78 -9 -105 -15 -180 -37 -135 -40 -197 -88
-243 -186 -24 -52 -27 -68 -26 -163 1 -82 7 -124 28 -193 14 -48 26 -92 26
-99 0 -6 12 -31 26 -56 l26 -44 47 44 c25 25 64 58 86 74 22 16 42 31 45 34
25 26 206 112 290 139 122 39 212 48 435 45 196 -3 219 -2 330 25 3 0 21 8 41
16 20 8 38 15 41 15 2 0 30 17 61 39 153 103 281 282 395 551 65 154 66 159
22 225 -20 30 -38 55 -38 55 -1 0 -32 -31 -68 -68z"/>
<path d="M586 4027 c-53 -125 -92 -241 -127 -372 l-28 -110 47 -43 c152 -140
385 -164 560 -59 l53 32 -38 30 c-144 114 -251 256 -363 482 l-65 132 -39 -92z"/>
<path d="M5360 4099 c0 -37 -160 -323 -228 -408 -51 -63 -140 -152 -185 -186
-34 -25 -36 -29 -20 -40 87 -61 208 -96 304 -88 106 8 221 59 303 134 20 18
33 38 31 47 -42 185 -95 344 -162 494 -23 53 -43 74 -43 47z"/>
<path d="M1240 3358 c-152 -133 -350 -193 -538 -164 -71 11 -181 52 -243 91
-64 39 -65 40 -66 23 -1 -7 -4 -65 -9 -128 -4 -63 -8 -148 -8 -189 l0 -74 74
-2 c104 -3 169 -13 259 -40 214 -64 350 -181 463 -400 123 -235 269 -325 524
-320 155 3 285 36 449 115 194 93 344 230 447 411 24 41 25 48 13 70 -31 54
-47 97 -58 149 -27 135 -266 337 -479 404 -114 37 -146 40 -408 41 -186 1
-260 5 -307 17 -34 9 -65 18 -70 21 -5 3 -24 -8 -43 -25z"/>
<path d="M4689 3375 c-66 -24 -132 -29 -374 -30 -262 -1 -339 -13 -464 -71
-169 -79 -391 -276 -391 -347 0 -32 -37 -133 -61 -168 -18 -25 -18 -27 8 -75
57 -108 164 -230 268 -307 84 -63 242 -143 335 -171 30 -9 69 -21 85 -26 88
-26 257 -33 357 -14 172 33 276 119 378 313 122 232 263 347 508 411 58 15
123 23 209 24 l73 1 1 30 c6 103 -8 356 -19 367 -4 4 -24 -4 -45 -17 -177
-121 -430 -140 -627 -47 -53 24 -124 69 -152 94 -48 45 -52 46 -89 33z"/>
<path d="M2906 3264 c-34 -11 -64 -31 -101 -67 -62 -63 -84 -120 -81 -209 8
-250 319 -360 485 -172 100 114 94 272 -13 380 -80 79 -178 102 -290 68z"/>
<path d="M395 2692 c3 -21 10 -70 15 -110 5 -40 12 -76 14 -80 2 -4 7 -23 10
-42 14 -91 107 -401 126 -423 4 -4 24 9 46 29 109 102 261 172 414 191 25 3
47 7 48 8 5 5 -96 194 -126 235 -61 84 -147 146 -259 187 -75 27 -109 33 -216
38 l-78 3 6 -36z"/>
<path d="M5478 2725 c-2 -2 -23 -6 -48 -9 -96 -13 -227 -71 -298 -131 -40 -35
-99 -117 -141 -200 -23 -44 -46 -84 -51 -89 -22 -22 -8 -33 45 -39 132 -14
302 -93 409 -191 22 -20 41 -34 43 -32 19 19 111 319 129 420 3 17 9 49 14 71
4 22 11 63 14 90 4 28 9 64 12 81 l6 31 -66 0 c-36 0 -67 -1 -68 -2z"/>
<path d="M2685 2478 c-84 -127 -247 -268 -408 -353 -141 -75 -253 -113 -412
-141 -86 -15 -276 -21 -313 -10 -9 3 -28 7 -42 10 -47 7 -125 34 -185 62 -51
24 -74 29 -160 31 -118 2 -201 -14 -300 -61 -67 -31 -184 -126 -205 -166 -11
-21 28 -100 124 -252 l61 -98 938 0 938 0 -3 93 -3 92 -67 5 c-84 6 -113 29
-113 90 0 63 36 92 116 94 l64 2 3 92 c3 83 2 92 -15 92 -96 2 -124 8 -143 30
-28 33 -34 65 -20 101 17 40 57 59 124 59 l55 0 0 135 c1 74 -1 135 -3 135 -2
0 -16 -19 -31 -42z"/>
<path d="M3280 2387 l0 -137 64 0 c53 0 67 -4 89 -24 37 -34 44 -71 22 -112
-18 -34 -64 -57 -107 -54 -71 6 -69 9 -66 -92 l3 -92 65 -2 c58 -2 67 -5 92
-33 37 -41 36 -80 -1 -120 -27 -29 -34 -31 -94 -31 l-66 0 0 -95 0 -95 937 0
937 0 66 108 c36 59 80 133 98 165 l32 58 -21 29 c-32 46 -120 120 -174 147
-98 50 -156 64 -276 68 -122 5 -110 7 -285 -60 -38 -14 -92 -31 -120 -36 -53
-11 -251 -15 -282 -5 -10 3 -38 8 -63 11 -294 40 -623 234 -798 470 -24 33
-46 62 -48 64 -2 2 -4 -57 -4 -132z"/>
<path d="M2909 2422 c-1 -9 -2 -51 -2 -92 l-1 -75 94 -3 95 -3 0 93 0 93 -93
2 c-81 2 -92 0 -93 -15z"/>
<path d="M2928 2060 c-21 -5 -22 -11 -23 -89 0 -46 2 -86 5 -90 3 -3 44 -7 92
-7 100 0 94 -7 93 109 l-2 79 -71 1 c-39 1 -81 0 -94 -3z"/>
<path d="M2914 1682 c-5 -4 -9 -45 -9 -92 l0 -85 89 -3 c49 -2 92 1 95 7 3 5
6 47 6 93 l-1 83 -85 2 c-47 0 -90 -2 -95 -5z"/>
<path d="M867 1313 c-1 -1 -24 -2 -52 -4 -111 -6 -219 -55 -300 -137 -70 -70
-105 -136 -132 -247 -3 -11 -6 -121 -7 -244 -2 -252 3 -278 60 -296 20 -7 900
-10 2576 -10 2407 0 2545 1 2571 18 14 9 30 31 35 49 13 51 7 445 -8 508 -38
166 -173 302 -340 345 -60 16 -238 17 -2233 18 -1193 1 -2169 1 -2170 0z m884
-221 l29 -32 0 -211 c0 -236 -5 -260 -62 -277 -38 -12 -423 -10 -451 3 -40 17
-47 54 -47 262 -1 121 3 210 10 230 19 53 44 59 280 58 l212 -1 29 -32z m732
19 c42 -23 47 -49 47 -267 0 -215 -6 -251 -47 -270 -20 -9 -380 -16 -429 -8
-18 2 -44 16 -58 31 l-26 26 0 214 c0 238 6 266 63 281 52 14 423 8 450 -7z
m643 -22 c102 -48 155 -139 150 -256 -5 -155 -120 -266 -274 -266 -115 0 -200
53 -251 154 -26 52 -30 70 -27 127 5 142 95 247 229 271 61 11 104 3 173 -30z
m1716 -367 c41 -37 42 -92 3 -132 l-25 -25 -488 -2 c-301 -1 -499 2 -520 9
-78 23 -79 143 -2 171 8 3 237 6 507 6 l493 1 32 -28z m541 17 c56 -26 68
-103 22 -148 -24 -25 -30 -26 -151 -27 -118 -2 -127 0 -153 22 -51 43 -47 119
8 149 32 17 238 20 274 4z"/>
<path d="M1409 916 c-1 -23 -1 -146 0 -158 1 -5 42 -8 91 -8 73 0 90 3 91 15
0 8 1 44 1 80 0 36 -1 71 -1 79 -1 11 -21 14 -91 14 -85 0 -90 -1 -91 -22z"/>
<path d="M2158 926 c-3 -9 -2 -127 1 -163 1 -9 26 -13 90 -13 76 0 89 2 93 18
3 14 3 97 -1 158 -1 15 -179 15 -183 0z"/>
<path d="M2963 925 c-37 -16 -53 -42 -53 -88 0 -76 105 -113 156 -54 65 76
-12 181 -103 142z"/>
</g>
</svg>
